<svg width="210" height="50" viewBox="0 0 210 50" fill="none" xmlns="http://www.w3.org/2000/svg">
<path d="M24.9138 0C11.781 0 1.02235 10.1263 0 22.9952L13.3996 28.5353C14.5349 27.7588 15.9065 27.3038 17.3821 27.3038C17.5144 27.3038 17.6461 27.3083 17.7766 27.3157L23.7355 18.6786C23.7355 18.6373 23.7349 18.5972 23.7349 18.5565C23.7349 13.3577 27.9639 9.12821 33.1632 9.12821C38.362 9.12821 42.591 13.3577 42.591 18.5565C42.591 23.7553 38.362 27.9854 33.1632 27.9854C33.0915 27.9854 33.0202 27.9837 32.949 27.982L24.4504 34.046C24.4549 34.1562 24.4589 34.2686 24.4589 34.3805C24.4589 38.2834 21.2845 41.4573 17.3821 41.4573C13.9568 41.4573 11.0927 39.0125 10.4439 35.7748L0.86128 31.8131C3.82829 42.3067 13.4691 50 24.9138 50C38.7214 50 49.9141 38.8068 49.9141 25.0008C49.9141 11.1927 38.7209 0 24.9138 0Z" fill="#76808C"/>
<path d="M15.6662 37.9338L12.5952 36.665C13.1394 37.7981 14.081 38.747 15.3311 39.2681C18.0336 40.3938 21.1492 39.1115 22.2756 36.4068C22.8209 35.099 22.8243 33.6551 22.2835 32.3439C21.7438 31.0322 20.7254 30.0093 19.4159 29.4634C18.1167 28.9226 16.7247 28.9423 15.5018 29.4041L18.6739 30.7158C20.6672 31.5465 21.6098 33.8354 20.7791 35.8286C19.95 37.8224 17.6595 38.7651 15.6662 37.9338Z" fill="#76808C"/>
<path d="M39.4451 18.5566C39.4451 15.0928 36.6273 12.2744 33.163 12.2744C29.6992 12.2744 26.8809 15.0928 26.8809 18.5566C26.8809 22.0209 29.6992 24.8381 33.163 24.8381C36.6273 24.8376 39.4451 22.0203 39.4451 18.5566ZM28.4542 18.5458C28.4542 15.9394 30.5673 13.8269 33.1737 13.8269C35.7802 13.8269 37.8933 15.9394 37.8933 18.5458C37.8933 21.1523 35.7802 23.2648 33.1737 23.2648C30.5673 23.2648 28.4542 21.1517 28.4542 18.5458Z" fill="#76808C"/>
<path d="M88.7873 14.9768L86.5187 18.9646C84.7713 17.7437 82.4031 17.0089 80.3357 17.0089C77.9729 17.0089 76.511 17.9871 76.511 19.7391C76.511 21.8677 79.108 22.363 82.968 23.7483C87.1172 25.2156 89.5022 26.9401 89.5022 30.7403C89.5022 35.9397 85.4134 38.8597 79.5367 38.8597C76.6725 38.8597 73.2175 38.1203 70.5615 36.5046L72.2163 32.0836C74.374 33.2233 76.955 33.8991 79.2558 33.8991C82.3572 33.8991 83.8313 32.7549 83.8313 31.0633C83.8313 29.1276 81.5834 28.5459 77.9546 27.3442C73.8191 25.9634 70.9534 24.1517 70.9534 19.9458C70.9534 15.2026 74.7521 12.4785 80.2179 12.4785C84.0273 12.4785 87.0889 13.6856 88.7873 14.9768Z" fill="#76808C"/>
<path d="M106.521 17.0602V37.9856H101.179V17.0602H93.4258V12.4785H114.252V17.0602H106.521Z" fill="#76808C"/>
<path d="M125.513 17.0465V22.7939H135.736V27.3756H125.513V33.3618H137.374V37.9856H120.173V12.4785H137.374V17.0465H125.513Z" fill="#76808C"/>
<path d="M149.296 33.0327L147.607 37.9856H142.007L151.571 12.4785H156.948L166.782 37.9849H160.993L159.268 33.0319L149.296 33.0327ZM154.229 18.5627L150.746 28.7755H157.785L154.229 18.5627Z" fill="#76808C"/>
<path d="M194.197 22.3377L187.216 37.2424H184.202L177.335 22.4709V37.9856H172.22V12.4785H177.323L185.896 30.8911L194.164 12.4785H199.312V37.9856H194.198L194.197 22.3377Z" fill="#76808C"/>
<path d="M209.638 14.254C209.638 16.4461 207.996 17.8124 206.111 17.8124C204.219 17.8124 202.572 16.4461 202.572 14.254C202.572 12.0626 204.219 10.7056 206.111 10.7056C207.997 10.7056 209.638 12.0626 209.638 14.254ZM203.165 14.254C203.165 16.0879 204.487 17.2398 206.111 17.2398C207.729 17.2398 209.045 16.0879 209.045 14.254C209.045 12.4147 207.729 11.2804 206.111 11.2804C204.491 11.2804 203.165 12.4285 203.165 14.254ZM206.16 12.4407C207.074 12.4407 207.382 12.9245 207.382 13.4472C207.382 13.9264 207.098 14.2479 206.752 14.4117L207.572 15.9478H206.901L206.209 14.5862H205.497V15.9478H204.938V12.4407H206.16ZM205.502 14.0726H206.125C206.529 14.0726 206.767 13.8192 206.767 13.5008C206.767 13.1794 206.596 12.9727 206.124 12.9727H205.501V14.0726H205.502Z" fill="#76808C"/>
</svg>
