<svg width="25" height="25" viewBox="0 0 25 25" fill="none" xmlns="http://www.w3.org/2000/svg">
<path d="M19.8893 2.08534C19.7383 2.07831 19.5859 2.08752 19.4336 2.11383L13.3626 3.17177C12.8637 3.25927 12.5 3.69091 12.5 4.19716V10.4166C12.5 10.9916 12.9667 11.4583 13.5417 11.4583H20.8333C21.4083 11.4583 21.875 10.9916 21.875 10.4166V4.16664C21.875 3.54998 21.6043 2.96846 21.1324 2.57159C20.7785 2.27393 20.3423 2.10644 19.8893 2.08534ZM9.43197 3.88385C9.355 3.87983 9.27565 3.88416 9.19596 3.89809L4.85026 4.65492C3.85339 4.82888 3.125 5.69524 3.125 6.70774V10.4166C3.125 10.9916 3.59167 11.4583 4.16667 11.4583H9.375C9.95 11.4583 10.4167 10.9916 10.4167 10.4166V4.92348C10.4167 4.35746 9.97069 3.91193 9.43197 3.88385ZM4.16667 13.5416C3.59167 13.5416 3.125 14.0083 3.125 14.5833V18.2922C3.125 19.3047 3.85234 20.1711 4.85026 20.345L9.19596 21.1019C9.83346 21.2123 10.4167 20.7233 10.4167 20.0765V14.5833C10.4167 14.0083 9.95 13.5416 9.375 13.5416H4.16667ZM13.5417 13.5416C12.9667 13.5416 12.5 14.0083 12.5 14.5833V20.8028C12.5 21.309 12.8637 21.7417 13.3626 21.8282L19.4336 22.8861C19.5534 22.907 19.6739 22.9187 19.7937 22.9187C20.2802 22.9187 20.7532 22.7471 21.1324 22.4284C21.6043 22.0304 21.875 21.4489 21.875 20.8333V14.5833C21.875 14.0083 21.4083 13.5416 20.8333 13.5416H13.5417Z" fill="#76808C"/>
</svg>
